<svg width="512" height="512" viewBox="0 0 512 512" fill="none" xmlns="http://www.w3.org/2000/svg" role="img" aria-label="Tanta Pulse logo">
  <defs>
    <linearGradient id="g1" x1="96" y1="96" x2="416" y2="416" gradientUnits="userSpaceOnUse">
      <stop stop-color="#F7E2B0"/>
      <stop offset="0.45" stop-color="#F1C66A"/>
      <stop offset="1" stop-color="#D6A847"/>
    </linearGradient>
    <linearGradient id="g2" x1="128" y1="128" x2="384" y2="384" gradientUnits="userSpaceOnUse">
      <stop stop-color="#0B1020"/>
      <stop offset="1" stop-color="#111B38"/>
    </linearGradient>
    <filter id="shadow" x="0" y="0" width="512" height="512" filterUnits="userSpaceOnUse" color-interpolation-filters="sRGB">
      <feDropShadow dx="0" dy="16" stdDeviation="20" flood-color="#000000" flood-opacity="0.28"/>
    </filter>
  </defs>
  <rect width="512" height="512" rx="120" fill="url(#g2)"/>
  <circle cx="256" cy="256" r="160" fill="none" stroke="url(#g1)" stroke-opacity="0.18" stroke-width="18"/>
  <circle cx="256" cy="256" r="144" fill="rgba(255,255,255,0.02)"/>
  <g filter="url(#shadow)">
    <path d="M110 300C150 300 168 170 214 170C250 170 256 256 300 256C340 256 350 210 402 210" stroke="url(#g1)" stroke-width="18" stroke-linecap="round" stroke-linejoin="round"/>
    <path d="M110 300C150 300 168 170 214 170C250 170 256 256 300 256C340 256 350 210 402 210" stroke="#FFF6DE" stroke-opacity="0.2" stroke-width="6" stroke-linecap="round" stroke-linejoin="round"/>
  </g>
  <g filter="url(#shadow)">
    <text x="256" y="304" text-anchor="middle" font-family="Inter, ui-sans-serif, system-ui, -apple-system, BlinkMacSystemFont, 'Segoe UI', sans-serif" font-size="112" font-weight="900" letter-spacing="-0.08em" fill="url(#g1)">TP</text>
  </g>
  <circle cx="110" cy="300" r="10" fill="#F7E2B0"/>
  <circle cx="402" cy="210" r="10" fill="#F7E2B0"/>
</svg>
